<?xml version="1.0" encoding="UTF-8" standalone="no"?>
<!DOCTYPE svg PUBLIC "-//W3C//DTD SVG 1.1//EN"
 "http://www.w3.org/Graphics/SVG/1.1/DTD/svg11.dtd">
<!-- Generated by graphviz version 2.43.0 (0)
 -->
<!-- Title: assembled Pages: 1 -->
<svg width="266pt" height="494pt"
 viewBox="0.00 0.00 266.40 494.40" xmlns="http://www.w3.org/2000/svg" xmlns:xlink="http://www.w3.org/1999/xlink">
<g id="graph0" class="graph" transform="scale(1 1) rotate(0) translate(25.2 469.2)">
<title>assembled</title>
<polygon fill="#111111" stroke="transparent" points="-25.2,25.2 -25.2,-469.2 241.2,-469.2 241.2,25.2 -25.2,25.2"/>
<!-- AuthGroup -->
<g id="node1" class="node">
<title>AuthGroup</title>
<path fill="black" stroke="white" d="M185,-444C185,-444 29,-444 29,-444 23,-444 17,-438 17,-432 17,-432 17,-358 17,-358 17,-352 23,-346 29,-346 29,-346 185,-346 185,-346 191,-346 197,-352 197,-358 197,-358 197,-432 197,-432 197,-438 191,-444 185,-444"/>
<text text-anchor="middle" x="107" y="-420.6" font-family="Arial" font-size="18.00" fill="white">2 actor auth group</text>
<text text-anchor="middle" x="107" y="-400.6" font-family="Arial" font-size="18.00" fill="white">P(success)=0.9800</text>
<text text-anchor="middle" x="107" y="-380.6" font-family="Arial" font-size="18.00" fill="white">E(latency)=4.0000</text>
<text text-anchor="middle" x="107" y="-360.6" font-family="Arial" font-size="18.00" fill="white">throughput=0.2450</text>
</g>
<!-- WorkerGroup -->
<g id="node2" class="node">
<title>WorkerGroup</title>
<path fill="black" stroke="white" d="M202,-281C202,-281 12,-281 12,-281 6,-281 0,-275 0,-269 0,-269 0,-175 0,-175 0,-169 6,-163 12,-163 12,-163 202,-163 202,-163 208,-163 214,-169 214,-175 214,-175 214,-269 214,-269 214,-275 208,-281 202,-281"/>
<text text-anchor="middle" x="107" y="-257.6" font-family="Arial" font-size="18.00" fill="white">3 actor worker group</text>
<text text-anchor="middle" x="107" y="-237.6" font-family="Arial" font-size="18.00" fill="white">get_docs + post_review</text>
<text text-anchor="middle" x="107" y="-217.6" font-family="Arial" font-size="18.00" fill="white">P(success)=0.9250</text>
<text text-anchor="middle" x="107" y="-197.6" font-family="Arial" font-size="18.00" fill="white">E(latency)=8.0000</text>
<text text-anchor="middle" x="107" y="-177.6" font-family="Arial" font-size="18.00" fill="white">throughput=0.1156</text>
</g>
<!-- AuthGroup&#45;&gt;WorkerGroup -->
<g id="edge1" class="edge">
<title>AuthGroup&#45;&gt;WorkerGroup</title>
<path fill="none" stroke="white" stroke-width="2" d="M107,-345.91C107,-328.91 107,-309.45 107,-291.1"/>
<polygon fill="white" stroke="white" stroke-width="2" points="110.5,-291.05 107,-281.05 103.5,-291.05 110.5,-291.05"/>
<text text-anchor="middle" x="156" y="-309.8" font-family="Arial" font-size="14.00" fill="white">on auth success</text>
</g>
<!-- Assembled -->
<g id="node3" class="node">
<title>Assembled</title>
<path fill="black" stroke="white" d="M185,-98C185,-98 29,-98 29,-98 23,-98 17,-92 17,-86 17,-86 17,-12 17,-12 17,-6 23,0 29,0 29,0 185,0 185,0 191,0 197,-6 197,-12 197,-12 197,-86 197,-86 197,-92 191,-98 185,-98"/>
<text text-anchor="middle" x="107" y="-74.6" font-family="Arial" font-size="18.00" fill="white">assembled system</text>
<text text-anchor="middle" x="107" y="-54.6" font-family="Arial" font-size="18.00" fill="white">P(success)=0.9065</text>
<text text-anchor="middle" x="107" y="-34.6" font-family="Arial" font-size="18.00" fill="white">E(latency)=11.8400</text>
<text text-anchor="middle" x="107" y="-14.6" font-family="Arial" font-size="18.00" fill="white">throughput=0.0765</text>
</g>
<!-- WorkerGroup&#45;&gt;Assembled -->
<g id="edge2" class="edge">
<title>WorkerGroup&#45;&gt;Assembled</title>
<path fill="none" stroke="white" stroke-width="2" d="M107,-162.63C107,-145.08 107,-125.83 107,-108.28"/>
<polygon fill="white" stroke="white" stroke-width="2" points="110.5,-108.17 107,-98.17 103.5,-108.17 110.5,-108.17"/>
<text text-anchor="middle" x="161.5" y="-126.8" font-family="Arial" font-size="14.00" fill="white">aggregate metrics</text>
</g>
</g>
</svg>
